<?xml version="1.0" encoding="UTF-8" standalone="no"?>
<!-- Created with Inkscape (http://www.inkscape.org/) -->

<svg
   width="155.43695mm"
   height="56.444954mm"
   viewBox="0 0 155.43695 56.444954"
   version="1.1"
   id="svg5"
   inkscape:version="1.2-alpha1 (b6a15bb, 2022-02-23)"
   sodipodi:docname="evil-bindr-logo.svg"
   xmlns:inkscape="http://www.inkscape.org/namespaces/inkscape"
   xmlns:sodipodi="http://sodipodi.sourceforge.net/DTD/sodipodi-0.dtd"
   xmlns="http://www.w3.org/2000/svg"
   xmlns:svg="http://www.w3.org/2000/svg">
  <sodipodi:namedview
     id="namedview7"
     pagecolor="#ffffff"
     bordercolor="#111111"
     borderopacity="1"
     inkscape:pageshadow="0"
     inkscape:pageopacity="0"
     inkscape:pagecheckerboard="1"
     inkscape:deskcolor="#d1d1d1"
     inkscape:document-units="mm"
     showgrid="false"
     inkscape:zoom="0.914906"
     inkscape:cx="-205.48559"
     inkscape:cy="-101.10328"
     inkscape:window-width="2556"
     inkscape:window-height="1386"
     inkscape:window-x="1050"
     inkscape:window-y="18"
     inkscape:window-maximized="1"
     inkscape:current-layer="g252" />
  <defs
     id="defs2">
    <style
       id="style191">.cls-1{fill:#49A078;}.cls-2{fill:none;}</style>
  </defs>
  <g
     inkscape:label="Layer 1"
     inkscape:groupmode="layer"
     id="layer1"
     transform="translate(-109.24664,-126.56198)"
     style="display:inline">
    <g
       id="g252"
       transform="matrix(0.26458333,0,0,0.26458333,10.109352,126.56591)">
      <path
         class="cls-2"
         d="m 715.44,120.44 a 33.63,33.63 0 0 0 -10.58,-8 29.35,29.35 0 0 0 -12.86,-2.9 30.33,30.33 0 0 0 -12.86,2.79 32.3,32.3 0 0 0 -10.6,7.85 38.65,38.65 0 0 0 -7.18,11.92 41,41 0 0 0 -2.65,15 39.32,39.32 0 0 0 2.65,14.58 37.25,37.25 0 0 0 7.18,11.66 33.1,33.1 0 0 0 10.6,7.73 30.33,30.33 0 0 0 12.86,2.75 29.35,29.35 0 0 0 12.86,-2.91 34.69,34.69 0 0 0 10.58,-7.91 37,37 0 0 0 7.19,-11.66 38.56,38.56 0 0 0 2.65,-14.32 40.36,40.36 0 0 0 -2.65,-14.71 38.44,38.44 0 0 0 -7.19,-11.87 z"
         id="path207" />
      <path
         class="cls-2"
         d="m 842.59,110.55 a 34.23,34.23 0 0 0 -14.57,-3 A 33.15,33.15 0 0 0 803.53,118 39.14,39.14 0 0 0 796,129.82 42.24,42.24 0 0 0 792.85,145 l 60.79,-25.85 a 30.79,30.79 0 0 0 -11.05,-8.6 z"
         id="path209" />
      <path
         class="cls-1"
         d="m 551.28898,0.36 a 1.35,1.35 0 0 0 -1.75,-0.1 1.37,1.37 0 0 0 -0.44,1.66 c 0.06,0.12 5.4,12.19 -3.7,22 a 32.3,32.3 0 0 1 -3,2.88 v 0 a 0.66,0.66 0 0 1 -0.45,0.17 0.7,0.7 0 0 1 -0.6,-0.34 v 0 a 13.84,13.84 0 0 1 -1.81,-7.63 1.3,1.3 0 0 0 -0.75,-1.3 1.14,1.14 0 0 0 -1.35,0.3 c -0.61,0.62 -15.07,15.37 -13.92,30.32 v 0.16 c 0,10.77 11.41,19.2 25.18,19.2 h 0.65 c 11.64,-0.33 21.47,-6.74 24,-15.6 0.61,-1.45 8.76,-23.19 -22.06,-51.72 z"
         id="path215" />
      <g
         aria-label="bindr"
         id="text2040"
         style="font-weight:bold;font-size:253.333px;-inkscape-font-specification:'sans-serif, Bold';text-align:center;text-anchor:middle;display:inline;fill:#49A078;stroke-width:0.377953;stroke-linecap:round">
        <path
           d="m 508.70527,145.17385 c 0,-37.49329 -27.86662,-68.146578 -62.31991,-68.146578 -15.19998,0 -28.11996,4.813327 -37.99995,15.199979 V 21.80068 h -33.69329 v 123.37317 c 0,37.74661 27.6133,68.14657 67.13324,68.14657 39.26662,0 66.87991,-30.39996 66.87991,-68.14657 z m -33.43995,0.25333 c 0,20.77331 -14.94665,36.73328 -33.43996,36.73328 -18.4933,0 -33.43995,-16.46664 -33.43995,-36.73328 0,-20.77331 14.94665,-37.49328 33.43995,-37.49328 18.49331,0 33.43996,15.95998 33.43996,37.49328 z"
           style="font-family:Chalet;-inkscape-font-specification:'Chalet Bold'"
           id="path27177" />
        <path
           d="m 596.10461,134.78719 v 75.49324 h 33.43996 V 134.0272 c 0,-14.69332 10.63998,-24.82664 25.33329,-24.82664 22.03997,0 24.5733,17.47998 24.5733,24.82664 v 76.25323 h 33.43996 v -75.49324 c 0,-34.19995 -21.5333,-58.266584 -58.01326,-58.266584 -35.46661,0 -58.77325,25.079964 -58.77325,58.266584 z"
           style="font-family:Chalet;-inkscape-font-specification:'Chalet Bold'"
           id="path27181" />
        <path
           d="M 868.69091,21.80068 H 835.25096 V 92.227251 C 825.11764,81.840599 812.45099,77.027272 796.99767,77.027272 c -34.19995,0 -62.31991,30.653288 -62.31991,68.146578 0,37.74661 27.61329,68.14657 67.13324,68.14657 39.26661,0 66.87991,-30.39996 66.87991,-68.14657 z m -33.43995,123.6265 c 0,20.26664 -14.94665,36.73328 -33.43996,36.73328 -18.49331,0 -33.43995,-15.95997 -33.43995,-36.73328 0,-21.5333 14.94664,-37.49328 33.43995,-37.49328 18.49331,0 33.43996,16.71997 33.43996,37.49328 z"
           style="font-family:Chalet;-inkscape-font-specification:'Chalet Bold'"
           id="path27183" />
        <path
           d="m 962.17038,77.280605 c -43.31994,-5.319993 -68.90657,20.519972 -68.90657,57.506585 v 75.49324 h 33.43995 v -75.49324 c 0,-18.4933 14.18665,-29.89329 35.46662,-26.09329 z"
           style="font-family:Chalet;-inkscape-font-specification:'Chalet Bold'"
           id="path27185" />
        <rect
           style="fill:#49A078;fill-opacity:1;stroke-width:0.377953;stroke-linecap:round"
           id="rect35439"
           width="33.43996"
           height="130.46649"
           x="532.51831"
           y="79.813934"
           ry="0" />
      </g>
    </g>
  </g>
</svg>
